# xmcd
#
# Track frame offsets:
#	182
#	11842
#	24220
#	35042
#	45877
#	55347
#	65025
#	75457
#	89160
#	100315
#	111795
#	123755
#	135437
#	148345
#	159265
#	170757
#	181242
#	193495
#	204715
#	215837
#
# Disc length: 3015 seconds
#
# Revision: 4
# Processed by: cddbd v1.5.2PL0 Copyright (c) Steve Scherf et al.
# Submitted via: audiograbber 1.83.01
#
DISCID=260bc514
DTITLE=Ferlin Husky - Capitol Collector's Series (1954-70)
DYEAR=1989
DGENRE=Country
TTITLE0=I Feel Better All Over (1954)
TTITLE1=I'll Baby Sit With You (1955)
TTITLE2=Gone (1956)
TTITLE3=A Fallen Star (1957)
TTITLE4=My Reason For Living (1958)
TTITLE5=Draggin' The River (1958)
TTITLE6=Wings Of A Dove (1960)
TTITLE7=The Waltz You Saved For Me (1961)
TTITLE8=Somebody Save Me (1962)
TTITLE9=I Know It Was You (1962)
TTITLE10=Timber I'm Falling (1963)
TTITLE11=I Could Sing All Night (1965)
TTITLE12=I Hear Little Rock Callin' (1965)
TTITLE13=Once (1965)
TTITLE14=You Pushed Me Too Far (1967)
TTITLE15=Just For You (1967)
TTITLE16=That's Why I Love You So Much (1969)
TTITLE17=Every Step Of The Way (1968)
TTITLE18=Heavenly Sunshine (1970)
TTITLE19=Sweet Misery (1970)
EXTD=
EXTT0=
EXTT1=
EXTT2=
EXTT3=
EXTT4=
EXTT5=
EXTT6=
EXTT7=
EXTT8=
EXTT9=
EXTT10=
EXTT11=
EXTT12=
EXTT13=
EXTT14=
EXTT15=
EXTT16=
EXTT17=
EXTT18=
EXTT19=
PLAYORDER=
